<svg width="87" height="31" viewBox="0 0 87 31" fill="none" xmlns="http://www.w3.org/2000/svg">
<g filter="url(#filter0_d)">
<path d="M10.3296 9.1209L8.2614 2.04117C8.11267 1.53207 8.41155 1.24569 8.57959 1.16614C8.7652 1.13963 9.42279 1.07069 10.5683 1.00705C11.7138 0.943412 11.9206 1.32524 12.1592 1.56388L18.6821 9.1209H73.8086C78.0724 9.18454 80.5171 11.852 81.2065 13.1778C81.3656 13.7877 81.0952 15.1824 78.7406 15.8825C76.386 16.5825 72.6684 16.6514 71.104 16.5984H22.5004C21.2542 16.1741 18.3162 15.1347 16.5343 14.371C13.0979 13.0565 10.966 10.3232 10.3296 9.1209Z" fill="#D6D6D6"/>
<path fill-rule="evenodd" clip-rule="evenodd" d="M81.2415 13.4094H47.9145H14.5875C12.2869 12.0004 10.8356 10.0768 10.3296 9.12091L8.2614 2.04117C8.11267 1.53207 8.41155 1.24569 8.57959 1.16615C8.76519 1.13963 9.42279 1.07069 10.5683 1.00705C11.5895 0.950312 11.8647 1.24766 12.0815 1.48195C12.1078 1.51045 12.1334 1.538 12.1592 1.56388L18.6821 9.12091H73.8086C78.0724 9.18455 80.5171 11.852 81.2065 13.1778C81.2243 13.2459 81.2367 13.3238 81.2415 13.4094Z" fill="white"/>
<rect x="22.8186" y="10.9505" width="0.636381" height="0.954571" rx="0.31819" fill="#3A3A3C"/>
<rect x="24.0914" y="10.9505" width="0.636381" height="0.954571" rx="0.31819" fill="#3A3A3C"/>
<rect x="25.5233" y="10.9505" width="0.636381" height="0.954571" rx="0.31819" fill="#3A3A3C"/>
<rect x="26.9552" y="10.9505" width="0.636381" height="0.954571" rx="0.31819" fill="#3A3A3C"/>
<rect x="28.387" y="10.9505" width="0.636381" height="0.954571" rx="0.31819" fill="#3A3A3C"/>
<rect x="29.8188" y="10.9505" width="0.636381" height="0.954571" rx="0.31819" fill="#3A3A3C"/>
<rect x="31.2507" y="10.9505" width="0.636381" height="0.954571" rx="0.31819" fill="#3A3A3C"/>
<rect x="32.6826" y="10.9505" width="0.636381" height="0.954571" rx="0.31819" fill="#3A3A3C"/>
<rect x="34.1144" y="10.9505" width="0.636381" height="0.954571" rx="0.31819" fill="#3A3A3C"/>
<rect x="35.5463" y="10.9505" width="0.636381" height="0.954571" rx="0.31819" fill="#3A3A3C"/>
<rect x="36.9781" y="10.9505" width="0.636381" height="0.954571" rx="0.31819" fill="#3A3A3C"/>
<rect x="38.41" y="10.9505" width="0.636381" height="0.954571" rx="0.31819" fill="#3A3A3C"/>
<rect x="39.8418" y="10.9505" width="0.636381" height="0.954571" rx="0.31819" fill="#3A3A3C"/>
<rect x="41.2737" y="10.9505" width="0.636381" height="0.954571" rx="0.31819" fill="#3A3A3C"/>
<rect x="42.7055" y="10.9505" width="0.636381" height="0.954571" rx="0.31819" fill="#3A3A3C"/>
<rect x="44.1375" y="10.9505" width="0.636381" height="0.954571" rx="0.31819" fill="#3A3A3C"/>
<rect x="45.5693" y="10.9505" width="0.636381" height="0.954571" rx="0.31819" fill="#3A3A3C"/>
<rect x="47.0012" y="10.9505" width="0.636381" height="0.954571" rx="0.31819" fill="#3A3A3C"/>
<rect x="48.433" y="10.9505" width="0.636381" height="0.954571" rx="0.31819" fill="#3A3A3C"/>
<rect x="49.8649" y="10.9505" width="0.636381" height="0.954571" rx="0.31819" fill="#3A3A3C"/>
<rect x="51.2967" y="10.9505" width="0.636381" height="0.954571" rx="0.31819" fill="#3A3A3C"/>
<rect x="52.7286" y="10.9505" width="0.636381" height="0.954571" rx="0.31819" fill="#3A3A3C"/>
<rect x="54.1605" y="10.9505" width="0.636381" height="0.954571" rx="0.31819" fill="#3A3A3C"/>
<rect x="55.5923" y="10.9505" width="0.636381" height="0.954571" rx="0.31819" fill="#3A3A3C"/>
<rect x="57.0241" y="10.9505" width="0.636381" height="0.954571" rx="0.31819" fill="#3A3A3C"/>
<rect x="58.456" y="10.9505" width="0.636381" height="0.954571" rx="0.31819" fill="#3A3A3C"/>
<rect x="59.8878" y="10.9505" width="0.636381" height="0.954571" rx="0.31819" fill="#3A3A3C"/>
<rect x="61.3196" y="10.9505" width="0.636381" height="0.954571" rx="0.31819" fill="#3A3A3C"/>
<rect x="62.7515" y="10.9505" width="0.636381" height="0.954571" rx="0.31819" fill="#3A3A3C"/>
<rect x="64.1835" y="10.9505" width="0.636381" height="0.954571" rx="0.31819" fill="#3A3A3C"/>
<rect x="65.6153" y="10.9505" width="0.636381" height="0.954571" rx="0.31819" fill="#3A3A3C"/>
<rect x="67.0471" y="10.9505" width="0.636381" height="0.954571" rx="0.31819" fill="#3A3A3C"/>
<rect x="68.479" y="10.9505" width="0.636381" height="0.954571" rx="0.31819" fill="#3A3A3C"/>
<path d="M77.0701 10.6323C77.0701 10.5444 77.1413 10.4732 77.2292 10.4732H77.8655C77.9534 10.4732 78.0502 10.563 78.1042 10.6323C78.1895 10.742 78.1837 10.871 78.1837 10.9505C78.1837 11.03 78.1125 11.1096 78.0246 11.1096H77.3883C77.3004 11.1096 77.2165 11.0404 77.1496 10.9505C77.0731 10.8477 77.0701 10.6323 77.0701 10.6323Z" fill="#3A3A3C"/>
<path d="M78.537 10.4732L78.5019 10.4732C78.4141 10.4732 78.3428 10.5444 78.3428 10.6323C78.3428 10.6323 78.3459 10.8477 78.4224 10.9505C78.4892 11.0404 78.5732 11.1096 78.661 11.1096H79.2974C79.3318 11.1096 79.3636 11.0974 79.3896 11.0778C79.1306 10.8695 78.8464 10.6658 78.537 10.4732Z" fill="#3A3A3C"/>
<path d="M17.8072 8.95476H10.7275L8.6911 2.14207C8.57342 1.73922 8.80992 1.51261 8.94289 1.44966C9.08976 1.42868 9.61011 1.37413 10.5165 1.32377C11.3247 1.27887 11.5424 1.51417 11.7139 1.69955C11.7348 1.7221 11.755 1.74391 11.7754 1.76439L17.8072 8.95476Z" fill="#BC3842"/>
<path d="M11.682 10.2346H18.1254L9.93195 12.621H5L11.682 10.2346Z" fill="#BC3842"/>
<path d="M49.4652 13.4094H31.8852L8.65725 21.2846C8.4027 21.4119 8.49816 21.7619 8.65725 21.7619H14.0665C14.0665 21.3801 14.4377 21.2316 14.6233 21.2051L49.4652 13.4094Z" fill="#BC3842"/>
<path fill-rule="evenodd" clip-rule="evenodd" d="M33.9396 16.8832L45.0901 14.3883V18.8187C42.098 19.2314 36.6922 19.338 33.9396 16.8832Z" fill="#F7C416"/>
<path fill-rule="evenodd" clip-rule="evenodd" d="M45.0899 18.7391C45.0899 18.7391 45.0899 18.7391 45.0899 18.7391H45.8854C46.0611 18.7391 46.2036 18.5966 46.2036 18.4209V14.9208C46.2036 14.7451 46.0611 14.6026 45.8854 14.6026H45.0899C45.0899 14.6026 45.0899 14.6026 45.0899 14.6026V18.7391Z" fill="#BC3842"/>
<path fill-rule="evenodd" clip-rule="evenodd" d="M22.8558 19.3631L30.9776 17.5459L31.3283 17.5459V20.8073C28.7255 21.0076 25.4285 20.9614 22.8558 19.3631Z" fill="#F7C416"/>
<path fill-rule="evenodd" clip-rule="evenodd" d="M31.3284 20.7207H31.7261C31.9018 20.7207 32.0443 20.5783 32.0443 20.4026V18.0161C32.0443 17.8404 31.9018 17.6979 31.7261 17.6979H31.3284V20.7207Z" fill="#BC3842"/>
<rect x="44.4556" y="17.705" width="0.159095" height="0.954571" rx="0.0795476" fill="black" fill-opacity="0.35"/>
<rect x="30.7734" y="19.6141" width="0.159095" height="0.954571" rx="0.0795476" fill="black" fill-opacity="0.35"/>
<rect x="44.1375" y="17.705" width="0.159095" height="0.954571" rx="0.0795476" fill="black" fill-opacity="0.35"/>
<rect x="30.4552" y="19.6141" width="0.159095" height="0.954571" rx="0.0795476" fill="black" fill-opacity="0.35"/>
<rect x="43.8192" y="17.705" width="0.159095" height="0.954571" rx="0.0795476" fill="black" fill-opacity="0.35"/>
<rect x="30.1371" y="19.6141" width="0.159095" height="0.954571" rx="0.0795476" fill="black" fill-opacity="0.35"/>
<rect x="43.501" y="17.705" width="0.159095" height="0.954571" rx="0.0795476" fill="black" fill-opacity="0.35"/>
<rect x="29.8188" y="19.6141" width="0.159095" height="0.954571" rx="0.0795476" fill="black" fill-opacity="0.35"/>
<rect x="43.1829" y="17.705" width="0.159095" height="0.954571" rx="0.0795476" fill="black" fill-opacity="0.35"/>
<rect x="29.5007" y="19.6141" width="0.159095" height="0.954571" rx="0.0795476" fill="black" fill-opacity="0.35"/>
<rect x="42.8646" y="17.705" width="0.159095" height="0.954571" rx="0.0795476" fill="black" fill-opacity="0.35"/>
<rect x="29.1825" y="19.6141" width="0.159095" height="0.954571" rx="0.0795476" fill="black" fill-opacity="0.35"/>
</g>
<defs>
<filter id="filter0_d" x="0" y="0" width="86.2436" height="30.7619" filterUnits="userSpaceOnUse" color-interpolation-filters="sRGB">
<feFlood flood-opacity="0" result="BackgroundImageFix"/>
<feColorMatrix in="SourceAlpha" type="matrix" values="0 0 0 0 0 0 0 0 0 0 0 0 0 0 0 0 0 0 127 0"/>
<feOffset dy="4"/>
<feGaussianBlur stdDeviation="2.5"/>
<feColorMatrix type="matrix" values="0 0 0 0 0 0 0 0 0 0 0 0 0 0 0 0 0 0 0.65 0"/>
<feBlend mode="normal" in2="BackgroundImageFix" result="effect1_dropShadow"/>
<feBlend mode="normal" in="SourceGraphic" in2="effect1_dropShadow" result="shape"/>
</filter>
</defs>
</svg>
