<svg width="97" height="31" viewBox="0 0 97 31" fill="none" xmlns="http://www.w3.org/2000/svg">
<g filter="url(#filter0_d)">
<path d="M5 9.78912H91.9572C90.8109 10.7999 89.9796 11.1887 88.428 11.8174C88.2074 15.4469 92.1777 15.0199 91.9572 18.1157H5V9.78912Z" fill="#3A3A3C"/>
<path d="M5 18.1157H92C91.8353 19.897 91.3827 20.7324 89.7932 21.8673H13.4963C10.2799 21.7309 8.40284 20.6907 5 18.1157Z" fill="#BC3842"/>
<path d="M5 8.40137H9.62585V9.78912H5V8.40137Z" fill="white"/>
<path d="M79.4315 8.40137H91.966V9.78912H78.0885L79.4315 8.40137Z" fill="white"/>
<path d="M20.2653 4.23809H36.2711V5.62585H50.7959V4.23809H53.3402L54.4966 5.62585H61.1523V4.23809H63.7483V8.40136H68.3742V9.78911H18.415L19.1089 7.0136H20.2653V4.23809Z" fill="white"/>
<path d="M20.2653 1H23.0408V4.2381H20.2653V1Z" fill="#F7C416"/>
<path d="M14.7143 4.70068H17.4898V9.78912H14.7143V4.70068Z" fill="#F7C416"/>
<path d="M11.0136 4.70068H13.7891V9.78912H11.0136V4.70068Z" fill="#F7C416"/>
<path d="M25.3538 1H28.1293V4.2381H25.3538V1Z" fill="#F7C416"/>
<path d="M30.4422 1H33.2177V4.2381H30.4422V1Z" fill="#F7C416"/>
<path d="M37.8436 1H40.6191V5.62585H37.8436V1Z" fill="#F7C416"/>
<path d="M42.4694 1H45.2449V5.62585H42.4694V1Z" fill="#F7C416"/>
<path d="M47.0953 1H49.8708V5.62585H47.0953V1Z" fill="#F7C416"/>
<path d="M20.2653 1.46259H23.0408V1.92518H20.2653V1.46259Z" fill="#3A3A3C"/>
<path d="M14.7143 5.16328H17.4898V5.62586H14.7143V5.16328Z" fill="#3A3A3C"/>
<path d="M11.0136 5.16328H13.7891V5.62586H11.0136V5.16328Z" fill="#3A3A3C"/>
<path d="M25.3538 1.46259H28.1293V1.92518H25.3538V1.46259Z" fill="#3A3A3C"/>
<path d="M30.4422 1.46259H33.2177V1.92518H30.4422V1.46259Z" fill="#3A3A3C"/>
<path d="M37.8436 1.46259H40.6191V1.92518H37.8436V1.46259Z" fill="#3A3A3C"/>
<path d="M42.4694 1.46259H45.2449V1.92518H42.4694V1.46259Z" fill="#3A3A3C"/>
<path d="M47.0953 1.46259H49.8708V1.92518H47.0953V1.46259Z" fill="#3A3A3C"/>
<path d="M20.7279 4.23809H21.1693V5.56219H20.7279V4.23809Z" fill="#343434"/>
<path d="M20.7279 7.0136H21.1693V8.33769H20.7279V7.0136Z" fill="#343434"/>
<path d="M22.5782 7.0136H23.0196V8.33769H22.5782V7.0136Z" fill="#343434"/>
<path d="M22.5782 4.23808H23.0196V5.56218H22.5782V4.23808Z" fill="#343434"/>
<path d="M24.4286 7.0136H24.87V8.33769H24.4286V7.0136Z" fill="#343434"/>
<path d="M24.4286 4.23808H24.87V5.56218H24.4286V4.23808Z" fill="#343434"/>
<path d="M26.2789 7.0136H26.7203V8.33769H26.2789V7.0136Z" fill="#343434"/>
<path d="M26.2789 4.23808H26.7203V5.56218H26.2789V4.23808Z" fill="#343434"/>
<path d="M28.1293 7.0136H28.5706V8.33769H28.1293V7.0136Z" fill="#343434"/>
<path d="M28.1293 4.23808H28.5706V5.56218H28.1293V4.23808Z" fill="#343434"/>
<path d="M29.9796 7.0136H30.421V8.33769H29.9796V7.0136Z" fill="#343434"/>
<path d="M29.9796 4.23808H30.421V5.56218H29.9796V4.23808Z" fill="#343434"/>
<path d="M31.83 7.0136H32.2713V8.33769H31.83V7.0136Z" fill="#343434"/>
<path d="M31.83 4.23808H32.2713V5.56218H31.83V4.23808Z" fill="#343434"/>
<path d="M33.6803 7.0136H34.1217V8.33769H33.6803V7.0136Z" fill="#343434"/>
<path d="M33.6803 4.23808H34.1217V5.56218H33.6803V4.23808Z" fill="#343434"/>
<path d="M35.5306 7.0136H35.972V8.33769H35.5306V7.0136Z" fill="#343434"/>
<path d="M37.381 7.0136H37.8223V8.33769H37.381V7.0136Z" fill="#343434"/>
<path d="M39.2313 7.0136H39.6727V8.33769H39.2313V7.0136Z" fill="#343434"/>
<path d="M41.0817 7.0136H41.523V8.33769H41.0817V7.0136Z" fill="#343434"/>
<path d="M42.932 7.0136H43.3733V8.33769H42.932V7.0136Z" fill="#343434"/>
<path d="M44.7823 7.0136H45.2237V8.33769H44.7823V7.0136Z" fill="#343434"/>
<path d="M46.6327 7.0136H47.0741V8.33769H46.6327V7.0136Z" fill="#343434"/>
<path d="M48.483 7.0136H48.9244V8.33769H48.483V7.0136Z" fill="#343434"/>
<path d="M50.3333 7.0136H50.7747V8.33769H50.3333V7.0136Z" fill="#343434"/>
<path d="M52.1837 7.0136H52.6251V8.33769H52.1837V7.0136Z" fill="#343434"/>
<path d="M54.0341 7.0136H54.4754V8.33769H54.0341V7.0136Z" fill="#343434"/>
<path d="M55.8844 7.0136H56.3258V8.33769H55.8844V7.0136Z" fill="#343434"/>
<path d="M57.7347 7.0136H58.1761V8.33769H57.7347V7.0136Z" fill="#343434"/>
<path d="M59.5851 7.0136H60.0264V8.33769H59.5851V7.0136Z" fill="#343434"/>
<path d="M61.4354 7.0136H61.8768V8.33769H61.4354V7.0136Z" fill="#343434"/>
<rect x="5" y="11.1769" width="82.3402" height="0.462585" fill="#2B2B2B"/>
<rect x="5" y="13.4898" width="82.3402" height="0.462585" fill="#2B2B2B"/>
<rect x="5" y="15.8027" width="82.3402" height="0.462585" fill="#2B2B2B"/>
</g>
<defs>
<filter id="filter0_d" x="0" y="0" width="97" height="30.8673" filterUnits="userSpaceOnUse" color-interpolation-filters="sRGB">
<feFlood flood-opacity="0" result="BackgroundImageFix"/>
<feColorMatrix in="SourceAlpha" type="matrix" values="0 0 0 0 0 0 0 0 0 0 0 0 0 0 0 0 0 0 127 0"/>
<feOffset dy="4"/>
<feGaussianBlur stdDeviation="2.5"/>
<feColorMatrix type="matrix" values="0 0 0 0 0 0 0 0 0 0 0 0 0 0 0 0 0 0 0.65 0"/>
<feBlend mode="normal" in2="BackgroundImageFix" result="effect1_dropShadow"/>
<feBlend mode="normal" in="SourceGraphic" in2="effect1_dropShadow" result="shape"/>
</filter>
</defs>
</svg>
