<svg width="63" height="29" viewBox="0 0 63 29" fill="none" xmlns="http://www.w3.org/2000/svg">
<g filter="url(#filter0_d)">
<path d="M55.9452 2.41514C55.9452 1.63358 55.3116 1 54.53 1H6.92979C6.14823 1 5.51465 1.63358 5.51465 2.41514V15.1514L11.7185 16.6554C11.8276 16.6818 11.9395 16.6952 12.0519 16.6952H54.53C55.3116 16.6952 55.9452 16.0616 55.9452 15.2801V2.41514Z" fill="#8C8C8C"/>
<path fill-rule="evenodd" clip-rule="evenodd" d="M57.4081 4.25166C57.3255 3.64183 56.8961 2.73761 55.6228 2.73761V2.41598C56.3019 2.39541 57.6328 2.74616 57.7388 4.27586C57.8212 4.3341 57.875 4.43011 57.875 4.5387V5.56789C57.875 5.74552 57.731 5.88952 57.5534 5.88952C57.3757 5.88952 57.2318 5.74552 57.2318 5.56789V4.5387C57.2318 4.41333 57.3035 4.30472 57.4081 4.25166Z" fill="#6A6A6A"/>
<path d="M55.9452 12.8357H32.4024V16.6952H54.5301C55.3117 16.6952 55.9452 16.1815 55.9452 15.5478V12.8357Z" fill="#FF7A00"/>
<path d="M5.51465 2.15784H55.9452V10.1341H5.51465V2.15784Z" fill="black"/>
<path fill-rule="evenodd" clip-rule="evenodd" d="M40.6359 16.6952H47.197C47.1673 14.9139 45.7099 13.479 43.9165 13.479C42.123 13.479 40.6656 14.9139 40.6359 16.6952Z" fill="#6A6A6A"/>
<path fill-rule="evenodd" clip-rule="evenodd" d="M15.4206 16.6952H21.9818C21.9521 14.9139 20.4947 13.479 18.7012 13.479C16.9077 13.479 15.4503 14.9139 15.4206 16.6952Z" fill="#6A6A6A"/>
<circle r="2.76596" transform="matrix(-1 0 0 1 43.9164 16.7595)" fill="#292929"/>
<circle r="2.76596" transform="matrix(-1 0 0 1 18.7018 16.7595)" fill="#292929"/>
<circle r="2.12271" transform="matrix(-1 0 0 1 43.9165 16.7595)" fill="#7C7C7C"/>
<circle r="2.12271" transform="matrix(-1 0 0 1 18.7017 16.7595)" fill="#7C7C7C"/>
<circle r="1.73677" transform="matrix(-1 0 0 1 43.9164 16.7595)" fill="#565656"/>
<circle r="1.73677" transform="matrix(-1 0 0 1 18.7017 16.7595)" fill="#565656"/>
<circle r="0.578922" transform="matrix(-1 0 0 1 43.9164 16.7595)" fill="#252525"/>
<circle r="0.192974" transform="matrix(-1 0 0 1 43.9165 15.6017)" fill="#252525"/>
<circle r="0.192974" transform="matrix(-1 0 0 1 43.0978 15.9408)" fill="#252525"/>
<circle r="0.192974" transform="matrix(-1 0 0 1 42.7587 16.7595)" fill="#252525"/>
<circle r="0.192974" transform="matrix(-1 0 0 1 43.0978 17.5783)" fill="#252525"/>
<circle r="0.192974" transform="matrix(-1 0 0 1 43.9165 17.9174)" fill="#252525"/>
<circle r="0.192974" transform="matrix(-1 0 0 1 44.7352 17.5783)" fill="#252525"/>
<circle r="0.192974" transform="matrix(-1 0 0 1 45.0744 16.7595)" fill="#252525"/>
<circle r="0.192974" transform="matrix(-1 0 0 1 44.7352 15.9408)" fill="#252525"/>
<circle r="0.578922" transform="matrix(-1 0 0 1 18.7017 16.7595)" fill="#252525"/>
<circle r="0.192974" transform="matrix(-1 0 0 1 18.7017 15.6017)" fill="#252525"/>
<circle r="0.192974" transform="matrix(-1 0 0 1 17.883 15.9408)" fill="#252525"/>
<circle r="0.192974" transform="matrix(-1 0 0 1 17.5439 16.7595)" fill="#252525"/>
<circle r="0.192974" transform="matrix(-1 0 0 1 17.8831 17.5783)" fill="#252525"/>
<circle r="0.192974" transform="matrix(-1 0 0 1 18.7017 17.9174)" fill="#252525"/>
<circle r="0.192974" transform="matrix(-1 0 0 1 19.5205 17.5783)" fill="#252525"/>
<circle r="0.192974" transform="matrix(-1 0 0 1 19.8596 16.7595)" fill="#252525"/>
<circle r="0.192974" transform="matrix(-1 0 0 1 19.5205 15.9408)" fill="#252525"/>
<rect width="1.67244" height="1.02919" rx="0.514597" transform="matrix(-1 0 0 1 38.9634 15.1514)" fill="black"/>
<rect width="1.67244" height="1.02919" rx="0.514597" transform="matrix(-1 0 0 1 32.0163 15.1514)" fill="black"/>
<rect width="1.67244" height="1.02919" rx="0.514597" transform="matrix(-1 0 0 1 13.4909 15.1514)" fill="black"/>
<rect width="3.21623" height="0.257299" rx="0.128649" transform="matrix(-1 0 0 1 14.2628 11.6779)" fill="black"/>
<rect width="3.21623" height="0.257299" rx="0.128649" transform="matrix(-1 0 0 1 14.2628 12.1925)" fill="black"/>
<rect width="3.21623" height="0.257299" rx="0.128649" transform="matrix(-1 0 0 1 14.2628 12.7071)" fill="black"/>
<path fill-rule="evenodd" clip-rule="evenodd" d="M5.51465 13.4744C5.49362 13.4774 5.47212 13.479 5.45026 13.479C5.20158 13.479 4.99999 13.2774 4.99999 13.0287C4.99999 12.78 5.20158 12.5784 5.45026 12.5784C5.47212 12.5784 5.49362 12.58 5.51465 12.583V13.4744Z" fill="#FFB800"/>
<path d="M53.7581 5.4384C53.7581 3.9108 52.5197 2.67244 50.9921 2.67244V2.67244C49.4645 2.67244 48.2261 3.9108 48.2261 5.4384V16.6952H53.7581V5.4384Z" fill="black"/>
<path d="M28.9288 5.4384C28.9288 3.9108 27.6905 2.67244 26.1629 2.67244V2.67244C24.6353 2.67244 23.3969 3.9108 23.3969 5.4384V16.6952H28.9288V5.4384Z" fill="black"/>
<path d="M53.3722 3.83029C53.3722 3.40398 53.0266 3.0584 52.6003 3.0584H50.9279V12.8357H53.3722V3.83029Z" fill="#959595"/>
<path d="M53.3722 12.8357H50.9279V16.6952H53.3722V12.8357Z" fill="#FF7A00"/>
<path d="M51.0565 12.8357H48.6122V16.6952H51.0565V12.8357Z" fill="#FF7A00"/>
<path d="M48.6123 3.83029C48.6123 3.40398 48.9579 3.0584 49.3842 3.0584H51.0566V12.8357H48.6123V3.83029Z" fill="#959595"/>
<path d="M28.5429 3.83029C28.5429 3.40399 28.1973 3.0584 27.771 3.0584H26.0986V16.6952H28.5429V3.83029Z" fill="#959595"/>
<path d="M23.7829 3.83029C23.7829 3.40399 24.1285 3.0584 24.5548 3.0584H26.2272V16.6952H23.7829V3.83029Z" fill="#959595"/>
<path d="M47.4543 3.83029C47.4543 3.40398 47.1087 3.0584 46.6824 3.0584H39.0921V9.23356H47.4543V3.83029Z" fill="#4D5374"/>
<path d="M22.7537 3.83029C22.7537 3.40398 22.4081 3.0584 21.9818 3.0584H15.5493V9.23356H22.7537V3.83029Z" fill="#4D5374"/>
<path d="M29.5721 3.83029C29.5721 3.40398 29.9177 3.0584 30.344 3.0584H37.9343V9.23356H29.5721V3.83029Z" fill="#4D5374"/>
<path d="M7.31573 3.83029C7.31573 3.40398 7.66132 3.0584 8.08763 3.0584H14.5201V9.23356H7.31573V3.83029Z" fill="#4D5374"/>
<path d="M52.9862 3.95894C52.9862 3.67474 52.7558 3.44434 52.4716 3.44434H51.3138V12.8357H52.9862V3.95894Z" fill="#4D5374"/>
<path d="M28.1569 3.95894C28.1569 3.67474 27.9265 3.44434 27.6423 3.44434H26.4845V12.8357H28.1569V3.95894Z" fill="#4D5374"/>
<path d="M48.9981 3.95894C48.9981 3.67474 49.2285 3.44434 49.5127 3.44434H50.6705V12.8357H48.9981V3.95894Z" fill="#4D5374"/>
<path d="M24.1688 3.95894C24.1688 3.67474 24.3992 3.44434 24.6834 3.44434H25.8412V12.8357H24.1688V3.95894Z" fill="#4D5374"/>
<path d="M5.51465 9.8768V9.8768C5.23044 9.8768 5.00005 10.1072 5.00005 10.3914V11.8065C5.00005 12.0907 5.23044 12.3211 5.51465 12.3211V12.3211V9.8768Z" fill="#FF0000"/>
<path fill-rule="evenodd" clip-rule="evenodd" d="M51.0565 16.6952V3.0584H50.9279V16.6952H51.0565Z" fill="black"/>
<path fill-rule="evenodd" clip-rule="evenodd" d="M26.2272 16.6952V3.0584H26.0986V16.6952H26.2272Z" fill="black"/>
<path d="M55.9452 2.2865H55.4735C54.9524 2.2865 54.53 2.74729 54.53 3.31569V11.0347C54.53 11.6031 54.9524 12.0638 55.4735 12.0638H55.9452V2.2865Z" fill="black"/>
<path d="M55.9452 2.67244H54.916V10.6026C54.916 11.1965 55.3768 11.6779 55.9452 11.6779V2.67244Z" fill="#4D5374"/>
</g>
<defs>
<filter id="filter0_d" x="0" y="0" width="62.875" height="28.5255" filterUnits="userSpaceOnUse" color-interpolation-filters="sRGB">
<feFlood flood-opacity="0" result="BackgroundImageFix"/>
<feColorMatrix in="SourceAlpha" type="matrix" values="0 0 0 0 0 0 0 0 0 0 0 0 0 0 0 0 0 0 127 0"/>
<feOffset dy="4"/>
<feGaussianBlur stdDeviation="2.5"/>
<feColorMatrix type="matrix" values="0 0 0 0 0 0 0 0 0 0 0 0 0 0 0 0 0 0 0.65 0"/>
<feBlend mode="normal" in2="BackgroundImageFix" result="effect1_dropShadow"/>
<feBlend mode="normal" in="SourceGraphic" in2="effect1_dropShadow" result="shape"/>
</filter>
</defs>
</svg>
