<svg width="34" height="34" viewBox="0 0 34 34" fill="none" xmlns="http://www.w3.org/2000/svg">
<path fill-rule="evenodd" clip-rule="evenodd" d="M17 34C26.3888 34 34 26.3889 34 17C34 7.61115 26.3888 0 17 0C7.61116 0 0 7.61115 0 17C0 26.3889 7.61116 34 17 34ZM28.037 19.0059L17.9454 8.95306C17.4587 8.46826 16.6696 8.46826 16.1829 8.95312L6.09135 19.0059C5.60464 19.4907 5.60464 20.2767 6.09135 20.7615L7.26837 21.934C7.75426 22.4181 8.54172 22.419 9.02873 21.9361L17.0641 13.9691L25.0996 21.9361C25.5866 22.4189 26.3741 22.418 26.86 21.934L28.037 20.7615C28.5237 20.2767 28.5237 19.4907 28.037 19.0059Z" fill="white" fill-opacity="0.5"/>
</svg>
